<svg xmlns="http://www.w3.org/2000/svg" width="900" height="600" viewBox="0 0 900 600">
  <defs>
    <linearGradient id="bg" x1="0%" y1="0%" x2="100%" y2="100%">
      <stop offset="0%" stop-color="#F8FAFC"/>
      <stop offset="100%" stop-color="#E2E8F0"/>
    </linearGradient>
    <linearGradient id="phone" x1="0%" y1="0%" x2="0%" y2="100%">
      <stop offset="0%" stop-color="#1E293B"/>
      <stop offset="100%" stop-color="#0F172A"/>
    </linearGradient>
    <filter id="shadow" x="-20%" y="-20%" width="140%" height="140%">
      <feGaussianBlur in="SourceAlpha" stdDeviation="20"/>
      <feOffset dx="0" dy="20"/>
      <feComponentTransfer><feFuncA type="linear" slope="0.18"/></feComponentTransfer>
      <feMerge><feMergeNode/><feMergeNode in="SourceGraphic"/></feMerge>
    </filter>
    <linearGradient id="drag1" x1="0%" y1="0%" x2="100%" y2="100%">
      <stop offset="0%" stop-color="#3B82F6" stop-opacity="0.12"/>
      <stop offset="100%" stop-color="#3B82F6" stop-opacity="0.04"/>
    </linearGradient>
  </defs>

  <rect width="900" height="600" fill="url(#bg)"/>

  <g transform="translate(250, 50)" filter="url(#shadow)">
    <rect x="0" y="0" width="400" height="500" rx="36" fill="url(#phone)"/>
    <rect x="10" y="10" width="380" height="480" rx="28" fill="#F8FAFC"/>
    <circle cx="200" cy="20" r="6" fill="#0F172A"/>

    <g transform="translate(20, 50)">
      <text x="0" y="20" font-family="-apple-system, sans-serif" font-size="20" font-weight="800" fill="#0F172A">重排任务</text>
      <text x="0" y="38" font-family="-apple-system, sans-serif" font-size="9" fill="#94A3B8">长按拖拽手柄 · 共 5 项</text>
      <rect x="270" y="0" width="90" height="32" rx="10" fill="#3B82F6"/>
      <text x="315" y="20" font-family="-apple-system, sans-serif" font-size="10" font-weight="700" fill="#FFFFFF" text-anchor="middle">✓ 保存</text>
    </g>

    <g transform="translate(20, 110)">
      <rect x="0" y="0" width="360" height="56" rx="12" fill="url(#drag1)" stroke="#3B82F6" stroke-width="2"/>
      <g transform="translate(8, 8)" stroke="#94A3B8" stroke-width="1.5" opacity="0.7">
        <line x1="0" y1="0" x2="0" y2="20"/>
        <line x1="4" y1="0" x2="4" y2="20"/>
        <line x1="8" y1="0" x2="8" y2="20"/>
        <line x1="0" y1="4" x2="8" y2="4"/>
        <line x1="0" y1="10" x2="8" y2="10"/>
        <line x1="0" y1="16" x2="8" y2="16"/>
      </g>
      <text x="40" y="22" font-family="-apple-system, sans-serif" font-size="11" font-weight="700" fill="#94A3B8">1</text>
      <text x="60" y="22" font-family="-apple-system, sans-serif" font-size="12" font-weight="700" fill="#0F172A">完成 Q2 报告</text>
      <circle cx="60" cy="36" r="3" fill="#EF4444"/>
      <text x="70" y="40" font-family="-apple-system, sans-serif" font-size="9" fill="#94A3B8">📅 今天 · 紧急</text>
    </g>

    <g transform="translate(20, 178)">
      <rect x="0" y="0" width="360" height="56" rx="12" fill="#FFFFFF" stroke="#E2E8F0"/>
      <g transform="translate(8, 8)" stroke="#94A3B8" stroke-width="1.5" opacity="0.5">
        <line x1="0" y1="0" x2="0" y2="20"/>
        <line x1="4" y1="0" x2="4" y2="20"/>
        <line x1="8" y1="0" x2="8" y2="20"/>
        <line x1="0" y1="4" x2="8" y2="4"/>
        <line x1="0" y1="10" x2="8" y2="10"/>
        <line x1="0" y1="16" x2="8" y2="16"/>
      </g>
      <text x="40" y="22" font-family="-apple-system, sans-serif" font-size="11" font-weight="700" fill="#94A3B8">2</text>
      <text x="60" y="22" font-family="-apple-system, sans-serif" font-size="12" font-weight="600" fill="#0F172A">设计评审会议</text>
      <circle cx="60" cy="36" r="3" fill="#F59E0B"/>
      <text x="70" y="40" font-family="-apple-system, sans-serif" font-size="9" fill="#94A3B8">📅 明天 · 高</text>
    </g>

    <g transform="translate(20, 246)">
      <rect x="0" y="0" width="360" height="56" rx="12" fill="#FFFFFF" stroke="#E2E8F0"/>
      <g transform="translate(8, 8)" stroke="#94A3B8" stroke-width="1.5" opacity="0.5">
        <line x1="0" y1="0" x2="0" y2="20"/>
        <line x1="4" y1="0" x2="4" y2="20"/>
        <line x1="8" y1="0" x2="8" y2="20"/>
        <line x1="0" y1="4" x2="8" y2="4"/>
        <line x1="0" y1="10" x2="8" y2="10"/>
        <line x1="0" y1="16" x2="8" y2="16"/>
      </g>
      <text x="40" y="22" font-family="-apple-system, sans-serif" font-size="11" font-weight="700" fill="#94A3B8">3</text>
      <text x="60" y="22" font-family="-apple-system, sans-serif" font-size="12" font-weight="600" fill="#0F172A">整理周会议纪要</text>
      <circle cx="60" cy="36" r="3" fill="#3B82F6"/>
      <text x="70" y="40" font-family="-apple-system, sans-serif" font-size="9" fill="#94A3B8">📅 周五 · 中</text>
    </g>

    <g transform="translate(20, 314)">
      <rect x="0" y="0" width="360" height="56" rx="12" fill="#FFFFFF" stroke="#E2E8F0" stroke-dasharray="6 4"/>
      <g transform="translate(8, 8)" stroke="#94A3B8" stroke-width="1.5" opacity="0.5">
        <line x1="0" y1="0" x2="0" y2="20"/>
        <line x1="4" y1="0" x2="4" y2="20"/>
        <line x1="8" y1="0" x2="8" y2="20"/>
        <line x1="0" y1="4" x2="8" y2="4"/>
        <line x1="0" y1="10" x2="8" y2="10"/>
        <line x1="0" y1="16" x2="8" y2="16"/>
      </g>
      <text x="40" y="22" font-family="-apple-system, sans-serif" font-size="11" font-weight="700" fill="#94A3B8">4</text>
      <text x="60" y="22" font-family="-apple-system, sans-serif" font-size="12" font-weight="600" fill="#0F172A">回邮件</text>
      <text x="60" y="40" font-family="-apple-system, sans-serif" font-size="9" fill="#94A3B8">📅 待定 · 低</text>
    </g>

    <g transform="translate(20, 382)">
      <rect x="0" y="0" width="360" height="56" rx="12" fill="#FFFFFF" stroke="#E2E8F0"/>
      <g transform="translate(8, 8)" stroke="#94A3B8" stroke-width="1.5" opacity="0.5">
        <line x1="0" y1="0" x2="0" y2="20"/>
        <line x1="4" y1="0" x2="4" y2="20"/>
        <line x1="8" y1="0" x2="8" y2="20"/>
        <line x1="0" y1="4" x2="8" y2="4"/>
        <line x1="0" y1="10" x2="8" y2="10"/>
        <line x1="0" y1="16" x2="8" y2="16"/>
      </g>
      <text x="40" y="22" font-family="-apple-system, sans-serif" font-size="11" font-weight="700" fill="#94A3B8">5</text>
      <text x="60" y="22" font-family="-apple-system, sans-serif" font-size="12" font-weight="600" fill="#0F172A">阅读技术文档</text>
      <text x="60" y="40" font-family="-apple-system, sans-serif" font-size="9" fill="#94A3B8">📅 本周</text>
    </g>

    <g transform="translate(220, 220)" opacity="0.95">
      <path d="M 0 0 L 0 -60 L 100 -60" stroke="#3B82F6" stroke-width="2" stroke-dasharray="4 3" fill="none"/>
      <text x="50" y="-66" font-family="-apple-system, sans-serif" font-size="9" font-weight="700" fill="#3B82F6" text-anchor="middle">拖到这</text>
      <polygon points="100,-60 92,-66 92,-54" fill="#3B82F6"/>
    </g>
  </g>

  <g transform="translate(40, 30)">
    <text x="0" y="0" font-family="-apple-system, sans-serif" font-size="11" font-weight="600" fill="#64748B">跨平台拖拽排序 · PanResponder · Animated</text>
  </g>
  <g transform="translate(40, 575)">
    <text x="0" y="0" font-family="-apple-system, sans-serif" font-size="9" fill="#94A3B8">长按 250ms 激活 · 实时计算目标 index · 释放后 spring 回弹</text>
  </g>
</svg>
